<?xml version="1.0" encoding="UTF-8" standalone="no"?>
<!-- Created with Inkscape (http://www.inkscape.org/) -->

<svg
   width="1000"
   height="1000"
   viewBox="0 0 264.58333 264.58333"
   version="1.1"
   id="svg1"
   xml:space="preserve"
   inkscape:version="1.4.2 (f4327f4, 2025-05-13)"
   sodipodi:docname="Field icono sociales.svg"
   xmlns:inkscape="http://www.inkscape.org/namespaces/inkscape"
   xmlns:sodipodi="http://sodipodi.sourceforge.net/DTD/sodipodi-0.dtd"
   xmlns="http://www.w3.org/2000/svg"
   xmlns:svg="http://www.w3.org/2000/svg"><sodipodi:namedview
     id="namedview1"
     pagecolor="#ffffff"
     bordercolor="#000000"
     borderopacity="0.25"
     inkscape:showpageshadow="2"
     inkscape:pageopacity="0.0"
     inkscape:pagecheckerboard="0"
     inkscape:deskcolor="#d1d1d1"
     inkscape:document-units="px"
     inkscape:zoom="0.50835204"
     inkscape:cx="346.21677"
     inkscape:cy="418.0174"
     inkscape:window-width="1920"
     inkscape:window-height="1009"
     inkscape:window-x="-8"
     inkscape:window-y="-8"
     inkscape:window-maximized="1"
     inkscape:current-layer="layer1" /><defs
     id="defs1" /><g
     inkscape:label="Capa 1"
     inkscape:groupmode="layer"
     id="layer1"><rect
       style="fill:#f5f1ed;stroke-width:14.5809;stroke-linecap:round"
       id="rect1"
       width="264.58334"
       x="0"
       y="0"
       height="264.58334" /><g
       id="g20"
       transform="matrix(3.5274363,0,0,3.5277777,-1995.2962,-2261.7465)"><g
         fill="#000000"
         fill-opacity="1"
         id="g19"><g
           transform="translate(585.9062,701.31491)"
           id="g18"><g
             id="g17"><path
               d="M 5.4375,0 C 5.039062,0 4.84375,-0.21875 4.84375,-0.65625 4.84375,-0.90625 5.0625,-1.164062 5.5,-1.4375 5.8125,-1.644531 6.179688,-1.882812 6.609375,-2.15625 7.035156,-2.425781 7.382812,-2.789062 7.65625,-3.25 c 0.207031,-0.414062 0.3125,-0.851562 0.3125,-1.3125 v -34.71875 c 0,-1.351562 -0.523438,-2.210938 -1.5625,-2.578125 -1.042969,-0.363281 -1.5625,-0.816406 -1.5625,-1.359375 0,-0.4375 0.21875,-0.65625 0.65625,-0.65625 h 29 v 8.03125 c 0,0.4375 -0.21875,0.65625 -0.65625,0.65625 -0.210938,0 -0.59375,-0.414062 -1.15625,-1.25 -1.042969,-1.4375 -1.945312,-2.550781 -2.703125,-3.34375 -0.761719,-0.789062 -1.765625,-1.1875 -3.015625,-1.1875 H 13.625 V -24 h 7.15625 c 0.875,0 1.644531,-0.382812 2.3125,-1.15625 0.375,-0.457031 0.675781,-0.914062 0.90625,-1.375 0.226562,-0.457031 0.507812,-0.6875 0.84375,-0.6875 0.414062,0 0.625,0.21875 0.625,0.65625 v 7.9375 c 0,0.4375 -0.210938,0.65625 -0.625,0.65625 -0.375,0 -0.695312,-0.265625 -0.953125,-0.796875 -0.261719,-0.53125 -0.609375,-1.046875 -1.046875,-1.546875 -0.585938,-0.582031 -1.273438,-0.875 -2.0625,-0.875 H 13.625 v 16.625 c 0,0.585938 0.132812,1.09375 0.40625,1.53125 0.25,0.375 0.5625,0.683594 0.9375,0.921875 0.375,0.242187 0.71875,0.453125 1.03125,0.640625 0.476562,0.292969 0.71875,0.5625 0.71875,0.8125 0,0.125 -0.01172,0.21875 -0.03125,0.28125 C 16.539062,-0.125 16.34375,0 16.09375,0 Z m 0,0"
               id="path17" /></g></g></g><path
         fill="#000000"
         d="m 587.40234,650.5 v 3 h -3 v -3 m 3,6 v 3 h -3 v -3 m 3,6 v 3 h -3 v -3 m 3,6 v 3 h -3 v -3 m 3,6 v 3 h -3 v -3 m 3,6 v 3 h -3 v -3 m 3,6 v 3 h -3 v -3 m 3,6 v 3 h -3 v -3 m 3,6 v 3 h -3 v -3 m 3,6 v 3 h -3 v -3"
         fill-opacity="1"
         fill-rule="nonzero"
         id="path19" /></g></g></svg>
