<?xml version="1.0" encoding="UTF-8" standalone="no"?>
<svg
   width="1000"
   zoomAndPan="magnify"
   viewBox="0 0 750 749.99995"
   height="1000"
   preserveAspectRatio="xMidYMid"
   version="1.0"
   id="svg19"
   sodipodi:docname="Field.svg"
   inkscape:version="1.4.2 (f4327f4, 2025-05-13)"
   xmlns:inkscape="http://www.inkscape.org/namespaces/inkscape"
   xmlns:sodipodi="http://sodipodi.sourceforge.net/DTD/sodipodi-0.dtd"
   xmlns="http://www.w3.org/2000/svg"
   xmlns:svg="http://www.w3.org/2000/svg">
  <sodipodi:namedview
     id="namedview19"
     pagecolor="#ffffff"
     bordercolor="#000000"
     borderopacity="0.25"
     inkscape:showpageshadow="2"
     inkscape:pageopacity="0.0"
     inkscape:pagecheckerboard="0"
     inkscape:deskcolor="#d1d1d1"
     inkscape:zoom="0.57063517"
     inkscape:cx="304.92337"
     inkscape:cy="493.30994"
     inkscape:window-width="1920"
     inkscape:window-height="1009"
     inkscape:window-x="-8"
     inkscape:window-y="-8"
     inkscape:window-maximized="1"
     inkscape:current-layer="svg19" />
  <defs
     id="defs1">
    <g
       id="g1" />
  </defs>
  <g
     id="g21"
     inkscape:label="Field Logo"
     transform="translate(-663.85156,-650.65405)"
     inkscape:export-filename="Field logo.svg"
     inkscape:export-xdpi="96"
     inkscape:export-ydpi="96">
    <g
       fill="#000000"
       fill-opacity="1"
       id="g4">
      <g
         transform="translate(678.69139,771.3728)"
         id="g3">
        <g
           id="g2">
          <path
             d="M 5.4375,0 C 5.039062,0 4.84375,-0.21875 4.84375,-0.65625 4.84375,-0.90625 5.0625,-1.164062 5.5,-1.4375 5.8125,-1.644531 6.179688,-1.882812 6.609375,-2.15625 7.035156,-2.425781 7.382812,-2.789062 7.65625,-3.25 c 0.207031,-0.414062 0.3125,-0.851562 0.3125,-1.3125 v -34.71875 c 0,-1.351562 -0.523438,-2.210938 -1.5625,-2.578125 -1.042969,-0.363281 -1.5625,-0.816406 -1.5625,-1.359375 0,-0.4375 0.21875,-0.65625 0.65625,-0.65625 h 29 v 8.03125 c 0,0.4375 -0.21875,0.65625 -0.65625,0.65625 -0.210938,0 -0.59375,-0.414062 -1.15625,-1.25 -1.042969,-1.4375 -1.945312,-2.550781 -2.703125,-3.34375 -0.761719,-0.789062 -1.765625,-1.1875 -3.015625,-1.1875 H 13.625 V -24 h 7.15625 c 0.875,0 1.644531,-0.382812 2.3125,-1.15625 0.375,-0.457031 0.675781,-0.914062 0.90625,-1.375 0.226562,-0.457031 0.507812,-0.6875 0.84375,-0.6875 0.414062,0 0.625,0.21875 0.625,0.65625 v 7.9375 c 0,0.4375 -0.210938,0.65625 -0.625,0.65625 -0.375,0 -0.695312,-0.265625 -0.953125,-0.796875 -0.261719,-0.53125 -0.609375,-1.046875 -1.046875,-1.546875 -0.585938,-0.582031 -1.273438,-0.875 -2.0625,-0.875 H 13.625 v 16.625 c 0,0.585938 0.132812,1.09375 0.40625,1.53125 0.25,0.375 0.5625,0.683594 0.9375,0.921875 0.375,0.242187 0.71875,0.453125 1.03125,0.640625 0.476562,0.292969 0.71875,0.5625 0.71875,0.8125 0,0.125 -0.01172,0.21875 -0.03125,0.28125 C 16.539062,-0.125 16.34375,0 16.09375,0 Z m 0,0"
             id="path1" />
        </g>
      </g>
    </g>
    <g
       fill="#000000"
       fill-opacity="1"
       id="g7">
      <g
         transform="translate(714.28297,771.3728)"
         id="g6">
        <g
           id="g5">
          <path
             d="m 9.4375,-43.75 c 2.269531,0 3.40625,1.148438 3.40625,3.4375 0,2.3125 -1.136719,3.46875 -3.40625,3.46875 -2.273438,0 -3.40625,-1.15625 -3.40625,-3.46875 0,-2.289062 1.132812,-3.4375 3.40625,-3.4375 z M 12.25,-4.5625 c 0,1.355469 0.519531,2.214844 1.5625,2.578125 1.039062,0.367187 1.5625,0.808594 1.5625,1.328125 C 15.375,-0.21875 15.164062,0 14.75,0 H 4.15625 C 3.71875,0 3.5,-0.21875 3.5,-0.65625 3.5,-1.175781 4.019531,-1.617188 5.0625,-1.984375 6.101562,-2.347656 6.625,-3.207031 6.625,-4.5625 v -20 c 0,-1.3125 -0.523438,-2.15625 -1.5625,-2.53125 -1.042969,-0.375 -1.5625,-0.832031 -1.5625,-1.375 0,-0.4375 0.21875,-0.65625 0.65625,-0.65625 1.375,-0.0625 2.734375,-0.273438 4.078125,-0.640625 C 9.578125,-30.128906 10.914062,-30.539062 12.25,-31 Z m 0,0"
             id="path4" />
        </g>
      </g>
    </g>
    <g
       fill="#000000"
       fill-opacity="1"
       id="g10">
      <g
         transform="translate(732.81309,771.3728)"
         id="g9">
        <g
           id="g8">
          <path
             d="m 2.21875,-17.21875 c 0.582031,-3.851562 2.117188,-6.9375 4.609375,-9.25 2.488281,-2.3125 5.765625,-3.488281 9.828125,-3.53125 h 0.125 c 4.101562,0 7.238281,1.167969 9.40625,3.5 2.164062,2.375 3.25,5.46875 3.25,9.28125 -0.02344,0.835938 -0.05469,1.421875 -0.09375,1.765625 -0.04297,0.34375 -0.46875,0.515625 -1.28125,0.515625 H 8.15625 c 0.0625,3.375 0.914062,6.171875 2.5625,8.390625 1.644531,2.21875 3.71875,3.578125 6.21875,4.078125 0.726562,0.167969 1.46875,0.25 2.21875,0.25 1.976562,0 4.03125,-0.570312 6.15625,-1.71875 1.1875,-0.644531 1.988281,-0.96875 2.40625,-0.96875 0.101562,0 0.1875,0.023438 0.25,0.0625 0.0625,0.0625 0.09375,0.15625 0.09375,0.28125 0,0.273438 -0.136719,0.65625 -0.40625,1.15625 -0.25,0.5 -0.453125,0.835938 -0.609375,1 -0.15625,0.167969 -0.296875,0.3125 -0.421875,0.4375 -2.273438,1.9609375 -5.355469,2.9375 -9.25,2.9375 -5.460938,-0.042969 -9.554688,-1.789062 -12.28125,-5.25 -2.105469,-2.664062 -3.15625,-5.832031 -3.15625,-9.5 0,-1.101562 0.09375,-2.25 0.28125,-3.4375 z m 5.9375,0 H 24.625 c 0,-2.539062 -0.574219,-4.875 -1.71875,-7 -1.105469,-2.019531 -3.125,-3.03125 -6.0625,-3.03125 H 16.5 c -2.9375,0.08594 -5.042969,1.148438 -6.3125,3.1875 -1.273438,2.042969 -1.949219,4.324219 -2.03125,6.84375 z m 0,0"
             id="path7" />
        </g>
      </g>
    </g>
    <g
       fill="#000000"
       fill-opacity="1"
       id="g13">
      <g
         transform="translate(764.18618,771.3728)"
         id="g12">
        <g
           id="g11">
          <path
             d="m 11.9375,-4.5625 c 0,1.355469 0.519531,2.214844 1.5625,2.578125 1.039062,0.367187 1.5625,0.808594 1.5625,1.328125 C 15.0625,-0.21875 14.851562,0 14.4375,0 H 3.84375 C 3.40625,0 3.1875,-0.21875 3.1875,-0.65625 3.1875,-1.175781 3.707031,-1.617188 4.75,-1.984375 5.789062,-2.347656 6.3125,-3.207031 6.3125,-4.5625 v -34.71875 c 0,-1.332031 -0.523438,-2.1875 -1.5625,-2.5625 -1.042969,-0.375 -1.5625,-0.832031 -1.5625,-1.375 0,-0.4375 0.21875,-0.65625 0.65625,-0.65625 1.375,-0.0625 2.734375,-0.269531 4.078125,-0.625 1.34375,-0.351562 2.679687,-0.757812 4.015625,-1.21875 z m 0,0"
             id="path10" />
        </g>
      </g>
    </g>
    <g
       fill="#000000"
       fill-opacity="1"
       id="g16">
      <g
         transform="translate(782.84129,771.3728)"
         id="g15">
        <g
           id="g14">
          <path
             d="M 25.53125,-2.71875 16.9375,0.4375 C 16.269531,0.664062 15.71875,0.78125 15.28125,0.78125 H 14 c -2.960938,-0.148438 -5.511719,-1.351562 -7.65625,-3.625 -2.148438,-2.269531 -3.367188,-5.0625 -3.65625,-8.375 -0.085938,-0.875 -0.125,-1.71875 -0.125,-2.53125 0,-1.082031 0.070312,-2.132812 0.21875,-3.15625 0.25,-1.769531 0.9375,-3.539062 2.0625,-5.3125 0.539062,-0.914062 1.46875,-1.875 2.78125,-2.875 0.457031,-0.3125 0.96875,-0.59375 1.53125,-0.84375 1.664062,-0.625 3.335938,-1.25 5.015625,-1.875 1.675781,-0.625 3.359375,-1.25 5.046875,-1.875 0.351562,-0.125 0.6875,-0.1875 1,-0.1875 H 20.375 c 1.332031,0.0625 2.945312,0.398438 4.84375,1 0.164062,0.0625 0.269531,0.105469 0.3125,0.125 v -10.53125 c 0,-1.332031 -0.523438,-2.1875 -1.5625,-2.5625 -1.042969,-0.375 -1.5625,-0.832031 -1.5625,-1.375 0,-0.4375 0.21875,-0.65625 0.65625,-0.65625 1.375,-0.0625 2.734375,-0.269531 4.078125,-0.625 1.34375,-0.351562 2.691406,-0.757812 4.046875,-1.21875 V -4.5625 c 0,1.355469 0.519531,2.214844 1.5625,2.578125 1.039062,0.367187 1.5625,0.808594 1.5625,1.328125 C 34.3125,-0.21875 34.09375,0 33.65625,0 H 26.0625 c -0.355469,0 -0.53125,-0.132812 -0.53125,-0.40625 z m 0,-21.34375 c -0.9375,-0.851562 -2.089844,-1.597656 -3.453125,-2.234375 C 20.710938,-26.929688 19.5,-27.269531 18.4375,-27.3125 h -0.125 c -0.417969,0 -0.835938,0.08594 -1.25,0.25 -0.75,0.273438 -1.496094,0.546875 -2.234375,0.828125 -0.742187,0.28125 -1.484375,0.558594 -2.234375,0.828125 -0.523438,0.210938 -0.9375,0.480469 -1.25,0.8125 -1.292969,1.375 -2.15625,3.042969 -2.59375,5 -0.355469,1.480469 -0.53125,2.949219 -0.53125,4.40625 0,0.460938 0.019531,0.929688 0.0625,1.40625 0.226562,3 1.039062,5.4375 2.4375,7.3125 1.394531,1.9375 3.144531,3.199219 5.25,3.78125 0.789062,0.230469 1.59375,0.34375 2.40625,0.34375 0.25,0 0.507812,-0.00781 0.78125,-0.03125 0.457031,-0.039062 1,-0.175781 1.625,-0.40625 0.476562,-0.164062 1.226562,-0.441406 2.25,-0.828125 1.019531,-0.382813 1.851562,-0.703125 2.5,-0.953125 z m 0,0"
             id="path13" />
        </g>
      </g>
    </g>
    <path
       fill="#000000"
       d="m 663.85156,780.73437 h 3 v 3 h -3 m 6,-3 h 3 v 3 h -3 m 6,-3 h 3 v 3 h -3 m 6,-3 h 3 v 3 h -3 m 6,-3 h 3 v 3 h -3 m 6,-3 h 3 v 3 h -3 m 6,-3 h 3 v 3 h -3 m 6,-3 h 3 v 3 h -3 m 6,-3 h 3 v 3 h -3 m 6,-3 h 3 v 3 h -3 m 6,-3 h 3 v 3 h -3 m 6,-3 h 3 v 3 h -3 m 6,-3 h 3 v 3 h -3 m 6,-3 h 3 v 3 h -3 m 6,-3 h 3 v 3 h -3 m 6,-3 h 3 v 3 h -3 m 6,-3 h 3 v 3 h -3 m 6,-3 h 3 v 3 h -3 m 6,-3 h 3 v 3 h -3 m 6,-3 h 3 v 3 h -3 m 6,-3 h 3 v 3 h -3 m 6,-3 h 3 v 3 h -3 m 6,-3 h 3 v 3 h -3 m 6,-3 h 3 v 3 h -3 m 6,-3 h 3 v 3 h -3 m 6,-3 h 3 v 3 h -3 m 6,-3 h 3 v 3 h -3 m 6,-3 h 3 v 3 h -3 m 6,-3 h 3 v 3 h -3"
       fill-opacity="1"
       fill-rule="nonzero"
       id="path16" />
  </g>
  <g
     id="g20"
     inkscape:label="Field Icono"
     transform="translate(-584.40234,-650.5)"
     inkscape:export-filename="Field icono.svg"
     inkscape:export-xdpi="96"
     inkscape:export-ydpi="96">
    <g
       fill="#000000"
       fill-opacity="1"
       id="g19">
      <g
         transform="translate(585.9062,701.31491)"
         id="g18">
        <g
           id="g17">
          <path
             d="M 5.4375,0 C 5.039062,0 4.84375,-0.21875 4.84375,-0.65625 4.84375,-0.90625 5.0625,-1.164062 5.5,-1.4375 5.8125,-1.644531 6.179688,-1.882812 6.609375,-2.15625 7.035156,-2.425781 7.382812,-2.789062 7.65625,-3.25 c 0.207031,-0.414062 0.3125,-0.851562 0.3125,-1.3125 v -34.71875 c 0,-1.351562 -0.523438,-2.210938 -1.5625,-2.578125 -1.042969,-0.363281 -1.5625,-0.816406 -1.5625,-1.359375 0,-0.4375 0.21875,-0.65625 0.65625,-0.65625 h 29 v 8.03125 c 0,0.4375 -0.21875,0.65625 -0.65625,0.65625 -0.210938,0 -0.59375,-0.414062 -1.15625,-1.25 -1.042969,-1.4375 -1.945312,-2.550781 -2.703125,-3.34375 -0.761719,-0.789062 -1.765625,-1.1875 -3.015625,-1.1875 H 13.625 V -24 h 7.15625 c 0.875,0 1.644531,-0.382812 2.3125,-1.15625 0.375,-0.457031 0.675781,-0.914062 0.90625,-1.375 0.226562,-0.457031 0.507812,-0.6875 0.84375,-0.6875 0.414062,0 0.625,0.21875 0.625,0.65625 v 7.9375 c 0,0.4375 -0.210938,0.65625 -0.625,0.65625 -0.375,0 -0.695312,-0.265625 -0.953125,-0.796875 -0.261719,-0.53125 -0.609375,-1.046875 -1.046875,-1.546875 -0.585938,-0.582031 -1.273438,-0.875 -2.0625,-0.875 H 13.625 v 16.625 c 0,0.585938 0.132812,1.09375 0.40625,1.53125 0.25,0.375 0.5625,0.683594 0.9375,0.921875 0.375,0.242187 0.71875,0.453125 1.03125,0.640625 0.476562,0.292969 0.71875,0.5625 0.71875,0.8125 0,0.125 -0.01172,0.21875 -0.03125,0.28125 C 16.539062,-0.125 16.34375,0 16.09375,0 Z m 0,0"
             id="path17" />
        </g>
      </g>
    </g>
    <path
       fill="#000000"
       d="m 587.40234,650.5 v 3 h -3 v -3 m 3,6 v 3 h -3 v -3 m 3,6 v 3 h -3 v -3 m 3,6 v 3 h -3 v -3 m 3,6 v 3 h -3 v -3 m 3,6 v 3 h -3 v -3 m 3,6 v 3 h -3 v -3 m 3,6 v 3 h -3 v -3 m 3,6 v 3 h -3 v -3 m 3,6 v 3 h -3 v -3"
       fill-opacity="1"
       fill-rule="nonzero"
       id="path19" />
  </g>
</svg>
